<svg id="Layer_1" data-name="Layer 1" xmlns="http://www.w3.org/2000/svg" viewBox="0 0 30.03 29.8"><defs><style>.cls-1{fill:#697c89;}.cls-2{fill:#c61e55;}</style></defs><path class="cls-1" d="M28.84,1.17H18.75c-1.2,0-2.18,1.26-2.18,2.82h0c0,1.56,1,2.83,2.18,2.83h4.87c1.21,0,2.19,1.26,2.19,2.82V10c0,1.56-1,2.82-2.19,2.82H20.13c-1.21,0-2.19,1.27-2.19,2.83h0c0,1.56,1,2.82,2.19,2.82h3.49c1.21,0,2.19,1.27,2.19,2.83v1.21c0,1.56-1,2.83-2.19,2.83H18.4c-1.21,0-2.19,1.26-2.19,2.82h0c0,1.56,1,2.83,2.19,2.83H28.84C30.05,31,31,29.7,31,28.14V4C31,2.43,30.05,1.17,28.84,1.17Z" transform="translate(-1 -1.17)"/><path class="cls-2" d="M11,27.63c0-1.49.94-2.71,2.1-2.71h5c1.16,0,2.1-1.21,2.1-2.71V21c0-1.5-.94-2.71-2.1-2.71H14.76c-1.16,0-2.1-1.22-2.1-2.72s.94-2.71,2.1-2.71h3.36c1.16,0,2.1-1.21,2.1-2.71V9.87c0-1.5-.94-2.72-2.1-2.72H13.44c-1.16,0-2.1-1.21-2.1-2.71A2.74,2.74,0,0,1,12.73,1.9C6.24,2,1,8.31,1,16.07S6.13,30,12.54,30.24A2.69,2.69,0,0,1,11,27.63Z" transform="translate(-1 -1.17)"/></svg>